<mxfile host="app.diagrams.net" modified="2021-11-19T08:08:54.630Z" agent="5.0 (Windows NT 10.0; Win64; x64) AppleWebKit/537.36 (KHTML, like Gecko) Chrome/95.0.4638.69 Safari/537.36 Edg/95.0.1020.53" etag="5Y4OdclGu-VLayKgb_I4" version="15.2.1" type="github">
  <diagram id="VG8eyqfKNjotyexFLxuo" name="Page-1">
    <mxGraphModel dx="1958" dy="1575" grid="1" gridSize="10" guides="1" tooltips="1" connect="1" arrows="1" fold="1" page="1" pageScale="1" pageWidth="850" pageHeight="1100" math="0" shadow="0">
      <root>
        <mxCell id="0" />
        <mxCell id="1" parent="0" />
        <mxCell id="1HkXlkdMr8uAS0z24yEN-7" value="Table" style="shape=table;startSize=30;container=1;collapsible=0;childLayout=tableLayout;fontStyle=1;align=center;pointerEvents=1;" vertex="1" parent="1">
          <mxGeometry x="203" y="1160" width="285" height="150" as="geometry" />
        </mxCell>
        <mxCell id="1HkXlkdMr8uAS0z24yEN-28" style="shape=partialRectangle;html=1;whiteSpace=wrap;collapsible=0;dropTarget=0;pointerEvents=0;fillColor=none;top=0;left=0;bottom=0;right=0;points=[[0,0.5],[1,0.5]];portConstraint=eastwest;" vertex="1" parent="1HkXlkdMr8uAS0z24yEN-7">
          <mxGeometry y="30" width="285" height="40" as="geometry" />
        </mxCell>
        <mxCell id="1HkXlkdMr8uAS0z24yEN-29" value="numbers" style="shape=partialRectangle;html=1;whiteSpace=wrap;connectable=0;fillColor=none;top=0;left=0;bottom=0;right=0;overflow=hidden;pointerEvents=1;" vertex="1" parent="1HkXlkdMr8uAS0z24yEN-28">
          <mxGeometry width="97" height="40" as="geometry" />
        </mxCell>
        <mxCell id="1HkXlkdMr8uAS0z24yEN-30" value="animals" style="shape=partialRectangle;html=1;whiteSpace=wrap;connectable=0;fillColor=none;top=0;left=0;bottom=0;right=0;overflow=hidden;pointerEvents=1;" vertex="1" parent="1HkXlkdMr8uAS0z24yEN-28">
          <mxGeometry x="97" width="188" height="40" as="geometry" />
        </mxCell>
        <mxCell id="1HkXlkdMr8uAS0z24yEN-8" value="" style="shape=partialRectangle;html=1;whiteSpace=wrap;collapsible=0;dropTarget=0;pointerEvents=0;fillColor=none;top=0;left=0;bottom=0;right=0;points=[[0,0.5],[1,0.5]];portConstraint=eastwest;" vertex="1" parent="1HkXlkdMr8uAS0z24yEN-7">
          <mxGeometry y="70" width="285" height="40" as="geometry" />
        </mxCell>
        <mxCell id="1HkXlkdMr8uAS0z24yEN-9" value="[2,5]" style="shape=partialRectangle;html=1;whiteSpace=wrap;connectable=0;fillColor=none;top=0;left=0;bottom=0;right=0;overflow=hidden;pointerEvents=1;" vertex="1" parent="1HkXlkdMr8uAS0z24yEN-8">
          <mxGeometry width="97" height="40" as="geometry" />
        </mxCell>
        <mxCell id="1HkXlkdMr8uAS0z24yEN-10" value="[&#39;dog&#39;, &#39;cat&#39;, &#39;bird&#39; ]" style="shape=partialRectangle;html=1;whiteSpace=wrap;connectable=0;fillColor=none;top=0;left=0;bottom=0;right=0;overflow=hidden;pointerEvents=1;" vertex="1" parent="1HkXlkdMr8uAS0z24yEN-8">
          <mxGeometry x="97" width="188" height="40" as="geometry" />
        </mxCell>
        <mxCell id="1HkXlkdMr8uAS0z24yEN-12" value="" style="shape=partialRectangle;html=1;whiteSpace=wrap;collapsible=0;dropTarget=0;pointerEvents=0;fillColor=none;top=0;left=0;bottom=0;right=0;points=[[0,0.5],[1,0.5]];portConstraint=eastwest;" vertex="1" parent="1HkXlkdMr8uAS0z24yEN-7">
          <mxGeometry y="110" width="285" height="40" as="geometry" />
        </mxCell>
        <mxCell id="1HkXlkdMr8uAS0z24yEN-13" value="[7,8,9]" style="shape=partialRectangle;html=1;whiteSpace=wrap;connectable=0;fillColor=none;top=0;left=0;bottom=0;right=0;overflow=hidden;pointerEvents=1;" vertex="1" parent="1HkXlkdMr8uAS0z24yEN-12">
          <mxGeometry width="97" height="40" as="geometry" />
        </mxCell>
        <mxCell id="1HkXlkdMr8uAS0z24yEN-14" value="[&#39;cow&#39;, &#39;pig&#39;]" style="shape=partialRectangle;html=1;whiteSpace=wrap;connectable=0;fillColor=none;top=0;left=0;bottom=0;right=0;overflow=hidden;pointerEvents=1;" vertex="1" parent="1HkXlkdMr8uAS0z24yEN-12">
          <mxGeometry x="97" width="188" height="40" as="geometry" />
        </mxCell>
        <mxCell id="1HkXlkdMr8uAS0z24yEN-31" value="Table" style="shape=table;startSize=30;container=1;collapsible=0;childLayout=tableLayout;fontStyle=1;align=center;pointerEvents=1;" vertex="1" parent="1">
          <mxGeometry x="130" y="1400" width="97" height="150" as="geometry" />
        </mxCell>
        <mxCell id="1HkXlkdMr8uAS0z24yEN-32" style="shape=partialRectangle;html=1;whiteSpace=wrap;collapsible=0;dropTarget=0;pointerEvents=0;fillColor=none;top=0;left=0;bottom=0;right=0;points=[[0,0.5],[1,0.5]];portConstraint=eastwest;" vertex="1" parent="1HkXlkdMr8uAS0z24yEN-31">
          <mxGeometry y="30" width="97" height="40" as="geometry" />
        </mxCell>
        <mxCell id="1HkXlkdMr8uAS0z24yEN-33" value="numbers" style="shape=partialRectangle;html=1;whiteSpace=wrap;connectable=0;fillColor=none;top=0;left=0;bottom=0;right=0;overflow=hidden;pointerEvents=1;" vertex="1" parent="1HkXlkdMr8uAS0z24yEN-32">
          <mxGeometry width="97" height="40" as="geometry" />
        </mxCell>
        <mxCell id="1HkXlkdMr8uAS0z24yEN-35" value="" style="shape=partialRectangle;html=1;whiteSpace=wrap;collapsible=0;dropTarget=0;pointerEvents=0;fillColor=none;top=0;left=0;bottom=0;right=0;points=[[0,0.5],[1,0.5]];portConstraint=eastwest;" vertex="1" parent="1HkXlkdMr8uAS0z24yEN-31">
          <mxGeometry y="70" width="97" height="40" as="geometry" />
        </mxCell>
        <mxCell id="1HkXlkdMr8uAS0z24yEN-36" value="2" style="shape=partialRectangle;html=1;whiteSpace=wrap;connectable=0;fillColor=none;top=0;left=0;bottom=0;right=0;overflow=hidden;pointerEvents=1;" vertex="1" parent="1HkXlkdMr8uAS0z24yEN-35">
          <mxGeometry width="97" height="40" as="geometry" />
        </mxCell>
        <mxCell id="1HkXlkdMr8uAS0z24yEN-38" value="" style="shape=partialRectangle;html=1;whiteSpace=wrap;collapsible=0;dropTarget=0;pointerEvents=0;fillColor=none;top=0;left=0;bottom=0;right=0;points=[[0,0.5],[1,0.5]];portConstraint=eastwest;" vertex="1" parent="1HkXlkdMr8uAS0z24yEN-31">
          <mxGeometry y="110" width="97" height="40" as="geometry" />
        </mxCell>
        <mxCell id="1HkXlkdMr8uAS0z24yEN-39" value="5" style="shape=partialRectangle;html=1;whiteSpace=wrap;connectable=0;fillColor=none;top=0;left=0;bottom=0;right=0;overflow=hidden;pointerEvents=1;" vertex="1" parent="1HkXlkdMr8uAS0z24yEN-38">
          <mxGeometry width="97" height="40" as="geometry" />
        </mxCell>
        <mxCell id="1HkXlkdMr8uAS0z24yEN-41" value="Table" style="shape=table;startSize=30;container=1;collapsible=0;childLayout=tableLayout;fontStyle=1;align=center;pointerEvents=1;" vertex="1" parent="1">
          <mxGeometry x="297" y="1400" width="97" height="190" as="geometry" />
        </mxCell>
        <mxCell id="1HkXlkdMr8uAS0z24yEN-42" style="shape=partialRectangle;html=1;whiteSpace=wrap;collapsible=0;dropTarget=0;pointerEvents=0;fillColor=none;top=0;left=0;bottom=0;right=0;points=[[0,0.5],[1,0.5]];portConstraint=eastwest;" vertex="1" parent="1HkXlkdMr8uAS0z24yEN-41">
          <mxGeometry y="30" width="97" height="40" as="geometry" />
        </mxCell>
        <mxCell id="1HkXlkdMr8uAS0z24yEN-43" value="numbers" style="shape=partialRectangle;html=1;whiteSpace=wrap;connectable=0;fillColor=none;top=0;left=0;bottom=0;right=0;overflow=hidden;pointerEvents=1;" vertex="1" parent="1HkXlkdMr8uAS0z24yEN-42">
          <mxGeometry width="97" height="40" as="geometry" />
        </mxCell>
        <mxCell id="1HkXlkdMr8uAS0z24yEN-44" value="" style="shape=partialRectangle;html=1;whiteSpace=wrap;collapsible=0;dropTarget=0;pointerEvents=0;fillColor=none;top=0;left=0;bottom=0;right=0;points=[[0,0.5],[1,0.5]];portConstraint=eastwest;" vertex="1" parent="1HkXlkdMr8uAS0z24yEN-41">
          <mxGeometry y="70" width="97" height="40" as="geometry" />
        </mxCell>
        <mxCell id="1HkXlkdMr8uAS0z24yEN-45" value="7" style="shape=partialRectangle;html=1;whiteSpace=wrap;connectable=0;fillColor=none;top=0;left=0;bottom=0;right=0;overflow=hidden;pointerEvents=1;" vertex="1" parent="1HkXlkdMr8uAS0z24yEN-44">
          <mxGeometry width="97" height="40" as="geometry" />
        </mxCell>
        <mxCell id="1HkXlkdMr8uAS0z24yEN-46" value="" style="shape=partialRectangle;html=1;whiteSpace=wrap;collapsible=0;dropTarget=0;pointerEvents=0;fillColor=none;top=0;left=0;bottom=0;right=0;points=[[0,0.5],[1,0.5]];portConstraint=eastwest;" vertex="1" parent="1HkXlkdMr8uAS0z24yEN-41">
          <mxGeometry y="110" width="97" height="40" as="geometry" />
        </mxCell>
        <mxCell id="1HkXlkdMr8uAS0z24yEN-47" value="8" style="shape=partialRectangle;html=1;whiteSpace=wrap;connectable=0;fillColor=none;top=0;left=0;bottom=0;right=0;overflow=hidden;pointerEvents=1;" vertex="1" parent="1HkXlkdMr8uAS0z24yEN-46">
          <mxGeometry width="97" height="40" as="geometry" />
        </mxCell>
        <mxCell id="1HkXlkdMr8uAS0z24yEN-48" value="" style="shape=partialRectangle;html=1;whiteSpace=wrap;collapsible=0;dropTarget=0;pointerEvents=0;fillColor=none;top=0;left=0;bottom=0;right=0;points=[[0,0.5],[1,0.5]];portConstraint=eastwest;" vertex="1" parent="1HkXlkdMr8uAS0z24yEN-41">
          <mxGeometry y="150" width="97" height="40" as="geometry" />
        </mxCell>
        <mxCell id="1HkXlkdMr8uAS0z24yEN-49" value="9" style="shape=partialRectangle;html=1;whiteSpace=wrap;connectable=0;fillColor=none;top=0;left=0;bottom=0;right=0;overflow=hidden;pointerEvents=1;" vertex="1" parent="1HkXlkdMr8uAS0z24yEN-48">
          <mxGeometry width="97" height="40" as="geometry" />
        </mxCell>
        <mxCell id="1HkXlkdMr8uAS0z24yEN-50" value="" style="shape=flexArrow;endArrow=classic;html=1;startSize=30;" edge="1" parent="1">
          <mxGeometry width="50" height="50" relative="1" as="geometry">
            <mxPoint x="240" y="1320" as="sourcePoint" />
            <mxPoint x="179" y="1390" as="targetPoint" />
          </mxGeometry>
        </mxCell>
        <mxCell id="1HkXlkdMr8uAS0z24yEN-51" value="" style="shape=flexArrow;endArrow=classic;html=1;startSize=30;" edge="1" parent="1">
          <mxGeometry width="50" height="50" relative="1" as="geometry">
            <mxPoint x="270" y="1320" as="sourcePoint" />
            <mxPoint x="340" y="1390" as="targetPoint" />
          </mxGeometry>
        </mxCell>
        <mxCell id="1HkXlkdMr8uAS0z24yEN-53" value="" style="shape=flexArrow;endArrow=classic;html=1;startSize=30;exitX=0.474;exitY=1;exitDx=0;exitDy=0;exitPerimeter=0;" edge="1" parent="1" source="1HkXlkdMr8uAS0z24yEN-38">
          <mxGeometry width="50" height="50" relative="1" as="geometry">
            <mxPoint x="177" y="1560" as="sourcePoint" />
            <mxPoint x="176" y="1830" as="targetPoint" />
          </mxGeometry>
        </mxCell>
        <mxCell id="1HkXlkdMr8uAS0z24yEN-54" value="Table" style="shape=table;startSize=30;container=1;collapsible=0;childLayout=tableLayout;fontStyle=1;align=center;pointerEvents=1;" vertex="1" parent="1">
          <mxGeometry x="-6" y="1840" width="400" height="150" as="geometry" />
        </mxCell>
        <mxCell id="1HkXlkdMr8uAS0z24yEN-55" style="shape=partialRectangle;html=1;whiteSpace=wrap;collapsible=0;dropTarget=0;pointerEvents=0;fillColor=none;top=0;left=0;bottom=0;right=0;points=[[0,0.5],[1,0.5]];portConstraint=eastwest;" vertex="1" parent="1HkXlkdMr8uAS0z24yEN-54">
          <mxGeometry y="30" width="400" height="40" as="geometry" />
        </mxCell>
        <mxCell id="1HkXlkdMr8uAS0z24yEN-56" value="n" style="shape=partialRectangle;html=1;whiteSpace=wrap;connectable=0;fillColor=none;top=0;left=0;bottom=0;right=0;overflow=hidden;pointerEvents=1;" vertex="1" parent="1HkXlkdMr8uAS0z24yEN-55">
          <mxGeometry width="97" height="40" as="geometry" />
        </mxCell>
        <mxCell id="1HkXlkdMr8uAS0z24yEN-61" value="numbers" style="shape=partialRectangle;html=1;whiteSpace=wrap;connectable=0;fillColor=none;top=0;left=0;bottom=0;right=0;overflow=hidden;pointerEvents=1;" vertex="1" parent="1HkXlkdMr8uAS0z24yEN-55">
          <mxGeometry x="97" width="97" height="40" as="geometry" />
        </mxCell>
        <mxCell id="1HkXlkdMr8uAS0z24yEN-67" value="animals" style="shape=partialRectangle;html=1;whiteSpace=wrap;connectable=0;fillColor=none;top=0;left=0;bottom=0;right=0;overflow=hidden;pointerEvents=1;" vertex="1" parent="1HkXlkdMr8uAS0z24yEN-55">
          <mxGeometry x="194" width="206" height="40" as="geometry" />
        </mxCell>
        <mxCell id="1HkXlkdMr8uAS0z24yEN-57" value="" style="shape=partialRectangle;html=1;whiteSpace=wrap;collapsible=0;dropTarget=0;pointerEvents=0;fillColor=none;top=0;left=0;bottom=0;right=0;points=[[0,0.5],[1,0.5]];portConstraint=eastwest;" vertex="1" parent="1HkXlkdMr8uAS0z24yEN-54">
          <mxGeometry y="70" width="400" height="40" as="geometry" />
        </mxCell>
        <mxCell id="1HkXlkdMr8uAS0z24yEN-58" value="2" style="shape=partialRectangle;html=1;whiteSpace=wrap;connectable=0;fillColor=none;top=0;left=0;bottom=0;right=0;overflow=hidden;pointerEvents=1;" vertex="1" parent="1HkXlkdMr8uAS0z24yEN-57">
          <mxGeometry width="97" height="40" as="geometry" />
        </mxCell>
        <mxCell id="1HkXlkdMr8uAS0z24yEN-62" value="&lt;span&gt;[2,5]&lt;/span&gt;" style="shape=partialRectangle;html=1;whiteSpace=wrap;connectable=0;fillColor=none;top=0;left=0;bottom=0;right=0;overflow=hidden;pointerEvents=1;" vertex="1" parent="1HkXlkdMr8uAS0z24yEN-57">
          <mxGeometry x="97" width="97" height="40" as="geometry" />
        </mxCell>
        <mxCell id="1HkXlkdMr8uAS0z24yEN-68" value="&lt;span&gt;[&#39;dog&#39;, &#39;cat&#39;, &#39;bird&#39; ]&lt;/span&gt;" style="shape=partialRectangle;html=1;whiteSpace=wrap;connectable=0;fillColor=none;top=0;left=0;bottom=0;right=0;overflow=hidden;pointerEvents=1;" vertex="1" parent="1HkXlkdMr8uAS0z24yEN-57">
          <mxGeometry x="194" width="206" height="40" as="geometry" />
        </mxCell>
        <mxCell id="1HkXlkdMr8uAS0z24yEN-59" value="" style="shape=partialRectangle;html=1;whiteSpace=wrap;collapsible=0;dropTarget=0;pointerEvents=0;fillColor=none;top=0;left=0;bottom=0;right=0;points=[[0,0.5],[1,0.5]];portConstraint=eastwest;" vertex="1" parent="1HkXlkdMr8uAS0z24yEN-54">
          <mxGeometry y="110" width="400" height="40" as="geometry" />
        </mxCell>
        <mxCell id="1HkXlkdMr8uAS0z24yEN-60" value="5" style="shape=partialRectangle;html=1;whiteSpace=wrap;connectable=0;fillColor=none;top=0;left=0;bottom=0;right=0;overflow=hidden;pointerEvents=1;" vertex="1" parent="1HkXlkdMr8uAS0z24yEN-59">
          <mxGeometry width="97" height="40" as="geometry" />
        </mxCell>
        <mxCell id="1HkXlkdMr8uAS0z24yEN-63" value="&lt;span&gt;[2,5]&lt;/span&gt;" style="shape=partialRectangle;html=1;whiteSpace=wrap;connectable=0;fillColor=none;top=0;left=0;bottom=0;right=0;overflow=hidden;pointerEvents=1;" vertex="1" parent="1HkXlkdMr8uAS0z24yEN-59">
          <mxGeometry x="97" width="97" height="40" as="geometry" />
        </mxCell>
        <mxCell id="1HkXlkdMr8uAS0z24yEN-69" value="[&#39;dog&#39;, &#39;cat&#39;, &#39;bird&#39; ]" style="shape=partialRectangle;html=1;whiteSpace=wrap;connectable=0;fillColor=none;top=0;left=0;bottom=0;right=0;overflow=hidden;pointerEvents=1;" vertex="1" parent="1HkXlkdMr8uAS0z24yEN-59">
          <mxGeometry x="194" width="206" height="40" as="geometry" />
        </mxCell>
        <mxCell id="1HkXlkdMr8uAS0z24yEN-70" value="Table" style="shape=table;startSize=30;container=1;collapsible=0;childLayout=tableLayout;fontStyle=1;align=center;pointerEvents=1;" vertex="1" parent="1">
          <mxGeometry x="510" y="1810" width="400" height="190" as="geometry" />
        </mxCell>
        <mxCell id="1HkXlkdMr8uAS0z24yEN-71" style="shape=partialRectangle;html=1;whiteSpace=wrap;collapsible=0;dropTarget=0;pointerEvents=0;fillColor=none;top=0;left=0;bottom=0;right=0;points=[[0,0.5],[1,0.5]];portConstraint=eastwest;" vertex="1" parent="1HkXlkdMr8uAS0z24yEN-70">
          <mxGeometry y="30" width="400" height="40" as="geometry" />
        </mxCell>
        <mxCell id="1HkXlkdMr8uAS0z24yEN-72" value="n" style="shape=partialRectangle;html=1;whiteSpace=wrap;connectable=0;fillColor=none;top=0;left=0;bottom=0;right=0;overflow=hidden;pointerEvents=1;" vertex="1" parent="1HkXlkdMr8uAS0z24yEN-71">
          <mxGeometry width="97" height="40" as="geometry" />
        </mxCell>
        <mxCell id="1HkXlkdMr8uAS0z24yEN-73" value="numbers" style="shape=partialRectangle;html=1;whiteSpace=wrap;connectable=0;fillColor=none;top=0;left=0;bottom=0;right=0;overflow=hidden;pointerEvents=1;" vertex="1" parent="1HkXlkdMr8uAS0z24yEN-71">
          <mxGeometry x="97" width="97" height="40" as="geometry" />
        </mxCell>
        <mxCell id="1HkXlkdMr8uAS0z24yEN-74" value="animals" style="shape=partialRectangle;html=1;whiteSpace=wrap;connectable=0;fillColor=none;top=0;left=0;bottom=0;right=0;overflow=hidden;pointerEvents=1;" vertex="1" parent="1HkXlkdMr8uAS0z24yEN-71">
          <mxGeometry x="194" width="206" height="40" as="geometry" />
        </mxCell>
        <mxCell id="1HkXlkdMr8uAS0z24yEN-161" style="shape=partialRectangle;html=1;whiteSpace=wrap;collapsible=0;dropTarget=0;pointerEvents=0;fillColor=none;top=0;left=0;bottom=0;right=0;points=[[0,0.5],[1,0.5]];portConstraint=eastwest;" vertex="1" parent="1HkXlkdMr8uAS0z24yEN-70">
          <mxGeometry y="70" width="400" height="40" as="geometry" />
        </mxCell>
        <mxCell id="1HkXlkdMr8uAS0z24yEN-162" value="7&lt;br&gt;" style="shape=partialRectangle;html=1;whiteSpace=wrap;connectable=0;fillColor=none;top=0;left=0;bottom=0;right=0;overflow=hidden;pointerEvents=1;" vertex="1" parent="1HkXlkdMr8uAS0z24yEN-161">
          <mxGeometry width="97" height="40" as="geometry" />
        </mxCell>
        <mxCell id="1HkXlkdMr8uAS0z24yEN-163" value="[7,8,9]" style="shape=partialRectangle;html=1;whiteSpace=wrap;connectable=0;fillColor=none;top=0;left=0;bottom=0;right=0;overflow=hidden;pointerEvents=1;" vertex="1" parent="1HkXlkdMr8uAS0z24yEN-161">
          <mxGeometry x="97" width="97" height="40" as="geometry" />
        </mxCell>
        <mxCell id="1HkXlkdMr8uAS0z24yEN-164" value="[&#39;cow&#39;, &#39;pig&#39;]" style="shape=partialRectangle;html=1;whiteSpace=wrap;connectable=0;fillColor=none;top=0;left=0;bottom=0;right=0;overflow=hidden;pointerEvents=1;" vertex="1" parent="1HkXlkdMr8uAS0z24yEN-161">
          <mxGeometry x="194" width="206" height="40" as="geometry" />
        </mxCell>
        <mxCell id="1HkXlkdMr8uAS0z24yEN-157" style="shape=partialRectangle;html=1;whiteSpace=wrap;collapsible=0;dropTarget=0;pointerEvents=0;fillColor=none;top=0;left=0;bottom=0;right=0;points=[[0,0.5],[1,0.5]];portConstraint=eastwest;" vertex="1" parent="1HkXlkdMr8uAS0z24yEN-70">
          <mxGeometry y="110" width="400" height="40" as="geometry" />
        </mxCell>
        <mxCell id="1HkXlkdMr8uAS0z24yEN-158" value="8" style="shape=partialRectangle;html=1;whiteSpace=wrap;connectable=0;fillColor=none;top=0;left=0;bottom=0;right=0;overflow=hidden;pointerEvents=1;" vertex="1" parent="1HkXlkdMr8uAS0z24yEN-157">
          <mxGeometry width="97" height="40" as="geometry" />
        </mxCell>
        <mxCell id="1HkXlkdMr8uAS0z24yEN-159" value="[7,8,9]" style="shape=partialRectangle;html=1;whiteSpace=wrap;connectable=0;fillColor=none;top=0;left=0;bottom=0;right=0;overflow=hidden;pointerEvents=1;" vertex="1" parent="1HkXlkdMr8uAS0z24yEN-157">
          <mxGeometry x="97" width="97" height="40" as="geometry" />
        </mxCell>
        <mxCell id="1HkXlkdMr8uAS0z24yEN-160" value="[&#39;cow&#39;, &#39;pig&#39;]" style="shape=partialRectangle;html=1;whiteSpace=wrap;connectable=0;fillColor=none;top=0;left=0;bottom=0;right=0;overflow=hidden;pointerEvents=1;" vertex="1" parent="1HkXlkdMr8uAS0z24yEN-157">
          <mxGeometry x="194" width="206" height="40" as="geometry" />
        </mxCell>
        <mxCell id="1HkXlkdMr8uAS0z24yEN-153" style="shape=partialRectangle;html=1;whiteSpace=wrap;collapsible=0;dropTarget=0;pointerEvents=0;fillColor=none;top=0;left=0;bottom=0;right=0;points=[[0,0.5],[1,0.5]];portConstraint=eastwest;" vertex="1" parent="1HkXlkdMr8uAS0z24yEN-70">
          <mxGeometry y="150" width="400" height="40" as="geometry" />
        </mxCell>
        <mxCell id="1HkXlkdMr8uAS0z24yEN-154" value="9" style="shape=partialRectangle;html=1;whiteSpace=wrap;connectable=0;fillColor=none;top=0;left=0;bottom=0;right=0;overflow=hidden;pointerEvents=1;" vertex="1" parent="1HkXlkdMr8uAS0z24yEN-153">
          <mxGeometry width="97" height="40" as="geometry" />
        </mxCell>
        <mxCell id="1HkXlkdMr8uAS0z24yEN-155" value="[7,8,9]" style="shape=partialRectangle;html=1;whiteSpace=wrap;connectable=0;fillColor=none;top=0;left=0;bottom=0;right=0;overflow=hidden;pointerEvents=1;" vertex="1" parent="1HkXlkdMr8uAS0z24yEN-153">
          <mxGeometry x="97" width="97" height="40" as="geometry" />
        </mxCell>
        <mxCell id="1HkXlkdMr8uAS0z24yEN-156" value="[&#39;cow&#39;, &#39;pig&#39;]" style="shape=partialRectangle;html=1;whiteSpace=wrap;connectable=0;fillColor=none;top=0;left=0;bottom=0;right=0;overflow=hidden;pointerEvents=1;" vertex="1" parent="1HkXlkdMr8uAS0z24yEN-153">
          <mxGeometry x="194" width="206" height="40" as="geometry" />
        </mxCell>
        <mxCell id="1HkXlkdMr8uAS0z24yEN-83" value="" style="shape=flexArrow;endArrow=classic;html=1;startSize=30;entryX=0.483;entryY=-0.027;entryDx=0;entryDy=0;entryPerimeter=0;" edge="1" parent="1" target="1HkXlkdMr8uAS0z24yEN-70">
          <mxGeometry width="50" height="50" relative="1" as="geometry">
            <mxPoint x="370" y="1592" as="sourcePoint" />
            <mxPoint x="170" y="1688" as="targetPoint" />
          </mxGeometry>
        </mxCell>
        <mxCell id="1HkXlkdMr8uAS0z24yEN-88" value="" style="shape=flexArrow;endArrow=classic;html=1;startSize=30;exitX=0.474;exitY=1;exitDx=0;exitDy=0;exitPerimeter=0;" edge="1" parent="1">
          <mxGeometry width="50" height="50" relative="1" as="geometry">
            <mxPoint x="202.99800000000008" y="1990" as="sourcePoint" />
            <mxPoint x="360" y="2130" as="targetPoint" />
          </mxGeometry>
        </mxCell>
        <mxCell id="1HkXlkdMr8uAS0z24yEN-89" value="" style="shape=flexArrow;endArrow=classic;html=1;startSize=30;" edge="1" parent="1">
          <mxGeometry width="50" height="50" relative="1" as="geometry">
            <mxPoint x="620" y="2020" as="sourcePoint" />
            <mxPoint x="440" y="2120" as="targetPoint" />
          </mxGeometry>
        </mxCell>
        <mxCell id="1HkXlkdMr8uAS0z24yEN-101" value="Table" style="shape=table;startSize=30;container=1;collapsible=0;childLayout=tableLayout;fontStyle=1;align=center;pointerEvents=1;" vertex="1" parent="1">
          <mxGeometry x="190" y="2140" width="400" height="260" as="geometry" />
        </mxCell>
        <mxCell id="1HkXlkdMr8uAS0z24yEN-102" style="shape=partialRectangle;html=1;whiteSpace=wrap;collapsible=0;dropTarget=0;pointerEvents=0;fillColor=none;top=0;left=0;bottom=0;right=0;points=[[0,0.5],[1,0.5]];portConstraint=eastwest;" vertex="1" parent="1HkXlkdMr8uAS0z24yEN-101">
          <mxGeometry y="30" width="400" height="40" as="geometry" />
        </mxCell>
        <mxCell id="1HkXlkdMr8uAS0z24yEN-103" value="n" style="shape=partialRectangle;html=1;whiteSpace=wrap;connectable=0;fillColor=none;top=0;left=0;bottom=0;right=0;overflow=hidden;pointerEvents=1;" vertex="1" parent="1HkXlkdMr8uAS0z24yEN-102">
          <mxGeometry width="97" height="40" as="geometry" />
        </mxCell>
        <mxCell id="1HkXlkdMr8uAS0z24yEN-104" value="numbers" style="shape=partialRectangle;html=1;whiteSpace=wrap;connectable=0;fillColor=none;top=0;left=0;bottom=0;right=0;overflow=hidden;pointerEvents=1;" vertex="1" parent="1HkXlkdMr8uAS0z24yEN-102">
          <mxGeometry x="97" width="97" height="40" as="geometry" />
        </mxCell>
        <mxCell id="1HkXlkdMr8uAS0z24yEN-105" value="animals" style="shape=partialRectangle;html=1;whiteSpace=wrap;connectable=0;fillColor=none;top=0;left=0;bottom=0;right=0;overflow=hidden;pointerEvents=1;" vertex="1" parent="1HkXlkdMr8uAS0z24yEN-102">
          <mxGeometry x="194" width="206" height="40" as="geometry" />
        </mxCell>
        <mxCell id="1HkXlkdMr8uAS0z24yEN-106" value="" style="shape=partialRectangle;html=1;whiteSpace=wrap;collapsible=0;dropTarget=0;pointerEvents=0;fillColor=none;top=0;left=0;bottom=0;right=0;points=[[0,0.5],[1,0.5]];portConstraint=eastwest;" vertex="1" parent="1HkXlkdMr8uAS0z24yEN-101">
          <mxGeometry y="70" width="400" height="40" as="geometry" />
        </mxCell>
        <mxCell id="1HkXlkdMr8uAS0z24yEN-107" value="2" style="shape=partialRectangle;html=1;whiteSpace=wrap;connectable=0;fillColor=none;top=0;left=0;bottom=0;right=0;overflow=hidden;pointerEvents=1;" vertex="1" parent="1HkXlkdMr8uAS0z24yEN-106">
          <mxGeometry width="97" height="40" as="geometry" />
        </mxCell>
        <mxCell id="1HkXlkdMr8uAS0z24yEN-108" value="&lt;span&gt;[2,5]&lt;/span&gt;" style="shape=partialRectangle;html=1;whiteSpace=wrap;connectable=0;fillColor=none;top=0;left=0;bottom=0;right=0;overflow=hidden;pointerEvents=1;" vertex="1" parent="1HkXlkdMr8uAS0z24yEN-106">
          <mxGeometry x="97" width="97" height="40" as="geometry" />
        </mxCell>
        <mxCell id="1HkXlkdMr8uAS0z24yEN-109" value="&lt;span&gt;[&#39;dog&#39;, &#39;cat&#39;, &#39;bird&#39; ]&lt;/span&gt;" style="shape=partialRectangle;html=1;whiteSpace=wrap;connectable=0;fillColor=none;top=0;left=0;bottom=0;right=0;overflow=hidden;pointerEvents=1;" vertex="1" parent="1HkXlkdMr8uAS0z24yEN-106">
          <mxGeometry x="194" width="206" height="40" as="geometry" />
        </mxCell>
        <mxCell id="1HkXlkdMr8uAS0z24yEN-110" value="" style="shape=partialRectangle;html=1;whiteSpace=wrap;collapsible=0;dropTarget=0;pointerEvents=0;fillColor=none;top=0;left=0;bottom=0;right=0;points=[[0,0.5],[1,0.5]];portConstraint=eastwest;" vertex="1" parent="1HkXlkdMr8uAS0z24yEN-101">
          <mxGeometry y="110" width="400" height="40" as="geometry" />
        </mxCell>
        <mxCell id="1HkXlkdMr8uAS0z24yEN-111" value="5" style="shape=partialRectangle;html=1;whiteSpace=wrap;connectable=0;fillColor=none;top=0;left=0;bottom=0;right=0;overflow=hidden;pointerEvents=1;" vertex="1" parent="1HkXlkdMr8uAS0z24yEN-110">
          <mxGeometry width="97" height="40" as="geometry" />
        </mxCell>
        <mxCell id="1HkXlkdMr8uAS0z24yEN-112" value="&lt;span&gt;[2,5]&lt;/span&gt;" style="shape=partialRectangle;html=1;whiteSpace=wrap;connectable=0;fillColor=none;top=0;left=0;bottom=0;right=0;overflow=hidden;pointerEvents=1;" vertex="1" parent="1HkXlkdMr8uAS0z24yEN-110">
          <mxGeometry x="97" width="97" height="40" as="geometry" />
        </mxCell>
        <mxCell id="1HkXlkdMr8uAS0z24yEN-113" value="[&#39;dog&#39;, &#39;cat&#39;, &#39;bird&#39; ]" style="shape=partialRectangle;html=1;whiteSpace=wrap;connectable=0;fillColor=none;top=0;left=0;bottom=0;right=0;overflow=hidden;pointerEvents=1;" vertex="1" parent="1HkXlkdMr8uAS0z24yEN-110">
          <mxGeometry x="194" width="206" height="40" as="geometry" />
        </mxCell>
        <mxCell id="1HkXlkdMr8uAS0z24yEN-75" value="" style="shape=partialRectangle;html=1;whiteSpace=wrap;collapsible=0;dropTarget=0;pointerEvents=0;fillColor=none;top=0;left=0;bottom=0;right=0;points=[[0,0.5],[1,0.5]];portConstraint=eastwest;" vertex="1" parent="1HkXlkdMr8uAS0z24yEN-101">
          <mxGeometry y="150" width="400" height="30" as="geometry" />
        </mxCell>
        <mxCell id="1HkXlkdMr8uAS0z24yEN-76" value="7" style="shape=partialRectangle;html=1;whiteSpace=wrap;connectable=0;fillColor=none;top=0;left=0;bottom=0;right=0;overflow=hidden;pointerEvents=1;" vertex="1" parent="1HkXlkdMr8uAS0z24yEN-75">
          <mxGeometry width="97" height="30" as="geometry" />
        </mxCell>
        <mxCell id="1HkXlkdMr8uAS0z24yEN-77" value="[7,8,9]" style="shape=partialRectangle;html=1;whiteSpace=wrap;connectable=0;fillColor=none;top=0;left=0;bottom=0;right=0;overflow=hidden;pointerEvents=1;" vertex="1" parent="1HkXlkdMr8uAS0z24yEN-75">
          <mxGeometry x="97" width="97" height="30" as="geometry" />
        </mxCell>
        <mxCell id="1HkXlkdMr8uAS0z24yEN-78" value="[&#39;cow&#39;, &#39;pig&#39;]" style="shape=partialRectangle;html=1;whiteSpace=wrap;connectable=0;fillColor=none;top=0;left=0;bottom=0;right=0;overflow=hidden;pointerEvents=1;" vertex="1" parent="1HkXlkdMr8uAS0z24yEN-75">
          <mxGeometry x="194" width="206" height="30" as="geometry" />
        </mxCell>
        <mxCell id="1HkXlkdMr8uAS0z24yEN-79" value="" style="shape=partialRectangle;html=1;whiteSpace=wrap;collapsible=0;dropTarget=0;pointerEvents=0;fillColor=none;top=0;left=0;bottom=0;right=0;points=[[0,0.5],[1,0.5]];portConstraint=eastwest;" vertex="1" parent="1HkXlkdMr8uAS0z24yEN-101">
          <mxGeometry y="180" width="400" height="40" as="geometry" />
        </mxCell>
        <mxCell id="1HkXlkdMr8uAS0z24yEN-80" value="8" style="shape=partialRectangle;html=1;whiteSpace=wrap;connectable=0;fillColor=none;top=0;left=0;bottom=0;right=0;overflow=hidden;pointerEvents=1;" vertex="1" parent="1HkXlkdMr8uAS0z24yEN-79">
          <mxGeometry width="97" height="40" as="geometry" />
        </mxCell>
        <mxCell id="1HkXlkdMr8uAS0z24yEN-81" value="[7,8,9]" style="shape=partialRectangle;html=1;whiteSpace=wrap;connectable=0;fillColor=none;top=0;left=0;bottom=0;right=0;overflow=hidden;pointerEvents=1;" vertex="1" parent="1HkXlkdMr8uAS0z24yEN-79">
          <mxGeometry x="97" width="97" height="40" as="geometry" />
        </mxCell>
        <mxCell id="1HkXlkdMr8uAS0z24yEN-82" value="[&#39;cow&#39;, &#39;pig&#39;]" style="shape=partialRectangle;html=1;whiteSpace=wrap;connectable=0;fillColor=none;top=0;left=0;bottom=0;right=0;overflow=hidden;pointerEvents=1;" vertex="1" parent="1HkXlkdMr8uAS0z24yEN-79">
          <mxGeometry x="194" width="206" height="40" as="geometry" />
        </mxCell>
        <mxCell id="1HkXlkdMr8uAS0z24yEN-84" value="" style="shape=partialRectangle;html=1;whiteSpace=wrap;collapsible=0;dropTarget=0;pointerEvents=0;fillColor=none;top=0;left=0;bottom=0;right=0;points=[[0,0.5],[1,0.5]];portConstraint=eastwest;" vertex="1" parent="1HkXlkdMr8uAS0z24yEN-101">
          <mxGeometry y="220" width="400" height="40" as="geometry" />
        </mxCell>
        <mxCell id="1HkXlkdMr8uAS0z24yEN-85" value="9" style="shape=partialRectangle;html=1;whiteSpace=wrap;connectable=0;fillColor=none;top=0;left=0;bottom=0;right=0;overflow=hidden;pointerEvents=1;" vertex="1" parent="1HkXlkdMr8uAS0z24yEN-84">
          <mxGeometry width="97" height="40" as="geometry" />
        </mxCell>
        <mxCell id="1HkXlkdMr8uAS0z24yEN-86" value="[7,8,9]" style="shape=partialRectangle;html=1;whiteSpace=wrap;connectable=0;fillColor=none;top=0;left=0;bottom=0;right=0;overflow=hidden;pointerEvents=1;" vertex="1" parent="1HkXlkdMr8uAS0z24yEN-84">
          <mxGeometry x="97" width="97" height="40" as="geometry" />
        </mxCell>
        <mxCell id="1HkXlkdMr8uAS0z24yEN-87" value="[&#39;cow&#39;, &#39;pig&#39;]" style="shape=partialRectangle;html=1;whiteSpace=wrap;connectable=0;fillColor=none;top=0;left=0;bottom=0;right=0;overflow=hidden;pointerEvents=1;" vertex="1" parent="1HkXlkdMr8uAS0z24yEN-84">
          <mxGeometry x="194" width="206" height="40" as="geometry" />
        </mxCell>
      </root>
    </mxGraphModel>
  </diagram>
</mxfile>
